<?xml version="1.0" standalone="no"?>
<!DOCTYPE svg PUBLIC "-//W3C//DTD SVG 20010904//EN"
 "http://www.w3.org/TR/2001/REC-SVG-20010904/DTD/svg10.dtd">
<svg version="1.0" xmlns="http://www.w3.org/2000/svg"
 width="512.000000pt" height="512.000000pt" viewBox="0 0 512.000000 512.000000"
 preserveAspectRatio="xMidYMid meet">
<metadata>
Created by potrace 1.14, written by Peter Selinger 2001-2017
</metadata>
<g transform="translate(0.000000,512.000000) scale(0.100000,-0.100000)"
fill="#000000" stroke="none">
<path d="M3341 4955 c-40 -18 -71 -51 -71 -77 0 -21 -4 -22 -32 -7 -12 6 -43
13 -70 15 -131 9 -251 -128 -252 -289 -1 -67 -1 -68 -26 -61 -58 15 -152 19
-205 9 -97 -20 -121 -48 -170 -205 -99 -317 -168 -472 -273 -619 -52 -72 -111
-148 -137 -175 -6 -6 -59 -67 -119 -136 -60 -69 -123 -141 -140 -160 -353
-395 -632 -896 -701 -1260 -9 -47 -25 -127 -36 -178 -12 -52 -22 -99 -23 -105
-26 -128 -116 -251 -439 -601 -61 -65 -81 -111 -81 -187 1 -47 7 -79 22 -110
26 -53 167 -195 267 -268 39 -28 75 -54 80 -59 16 -13 143 -85 210 -119 52
-26 230 -97 275 -109 132 -36 210 -55 235 -59 16 -2 57 -9 89 -14 115 -20 226
-24 282 -11 30 7 54 17 54 22 0 4 6 8 14 8 19 0 75 60 101 108 65 117 91 154
149 213 39 39 88 76 127 96 35 17 215 106 399 197 328 162 383 190 545 283
114 66 348 222 430 288 155 124 292 279 404 458 56 91 108 218 126 306 2 9 10
43 18 76 9 33 18 74 21 90 6 34 32 175 40 220 4 17 9 48 11 70 3 22 8 51 10
65 2 14 6 45 10 70 3 25 8 56 10 70 2 14 7 50 10 80 3 30 8 71 10 90 38 315
51 726 26 830 -28 117 -89 207 -221 325 -107 95 -483 454 -724 688 -66 66
-130 124 -140 129 -32 18 -79 19 -115 3z m-326 -1525 c19 -32 47 -89 60 -127
23 -61 25 -83 25 -220 0 -84 -3 -153 -7 -153 -5 0 -69 -2 -143 -4 -127 -4
-230 -12 -275 -21 -11 -2 -42 -7 -70 -11 -27 -3 -53 -8 -57 -11 -37 -22 104
291 201 445 61 98 102 178 132 261 l23 64 37 -82 c21 -45 54 -108 74 -141z"/>
</g>
</svg>
